<svg xmlns="http://www.w3.org/2000/svg" width="256" height="256" viewBox="0 0 100 100"><rect width="100" height="100" rx="20" fill="#000000"></rect><path d="M26.79 63.05L26.79 63.05L11.88 63.05Q11.04 63.05 10.66 62.67Q10.27 62.29 10.27 61.45L10.27 61.45L10.27 57.28Q10.27 56.83 10.40 56.51Q10.52 56.20 10.76 55.98L10.76 55.98L15.00 52.41L15.00 44.61L11.88 44.61Q11.04 44.61 10.66 44.23Q10.27 43.84 10.27 43L10.27 43L10.27 38.77Q10.27 38.31 10.40 37.99Q10.52 37.68 10.76 37.47L10.76 37.47L15.28 33.66Q15.45 33.52 15.75 33.43Q16.05 33.34 16.40 33.34L16.40 33.34L31.31 33.34Q32.15 33.34 32.53 33.72Q32.92 34.11 32.92 34.95L32.92 34.95L32.92 39.19Q32.92 39.64 32.80 39.95Q32.67 40.27 32.43 40.48L32.43 40.48L28.27 43.98L28.27 51.85L31.31 51.85Q32.15 51.85 32.53 52.24Q32.92 52.63 32.92 53.47L32.92 53.47L32.92 57.63Q32.92 58.09 32.80 58.40Q32.67 58.72 32.43 58.92L32.43 58.92L27.88 62.70Q27.74 62.84 27.44 62.95Q27.14 63.05 26.79 63.05ZM16.40 58.89L16.40 58.89L31.31 58.89Q31.98 58.89 32.27 58.59Q32.57 58.30 32.57 57.63L32.57 57.63L32.57 53.47Q32.57 52.80 32.27 52.50Q31.98 52.20 31.31 52.20L31.31 52.20L27.91 52.20L27.91 40.45L31.31 40.45Q31.98 40.45 32.27 40.15Q32.57 39.85 32.57 39.19L32.57 39.19L32.57 34.95Q32.57 34.28 32.27 33.99Q31.98 33.69 31.31 33.69L31.31 33.69L16.40 33.69Q15.73 33.69 15.44 33.99Q15.14 34.28 15.14 34.95L15.14 34.95L15.14 39.19Q15.14 39.85 15.44 40.15Q15.73 40.45 16.40 40.45L16.40 40.45L19.86 40.45L19.86 52.20L16.40 52.20Q15.73 52.20 15.44 52.50Q15.14 52.80 15.14 53.47L15.14 53.47L15.14 57.63Q15.14 58.30 15.44 58.59Q15.73 58.89 16.40 58.89ZM29.42 55.39L29.42 55.74L18.29 55.74L18.29 55.39L23.71 55.39L23.71 37.19L18.29 37.19L18.29 36.84L29.42 36.84L29.42 37.19L24.06 37.19L24.06 55.39L29.42 55.39ZM48.64 63.05L48.64 63.05L42.97 63.05Q42.09 63.05 41.72 62.67Q41.36 62.29 41.36 61.45L41.36 61.45L41.36 57.07L36.07 50Q35.23 48.88 34.95 48.04Q34.67 47.20 34.67 45.48L34.67 45.48L34.67 38.77Q34.67 38.31 34.79 37.99Q34.91 37.68 35.16 37.47L35.16 37.47L39.68 33.66Q39.85 33.52 40.15 33.43Q40.45 33.34 40.80 33.34L40.80 33.34L46.19 33.34Q47.03 33.34 47.41 33.72Q47.80 34.11 47.80 34.95L47.80 34.95L47.80 40.69Q47.80 41.00 47.83 41.32Q47.87 41.63 48.04 41.98L48.04 41.98L48.46 42.58L48.46 38.77Q48.46 38.31 48.58 37.99Q48.71 37.68 48.95 37.47L48.95 37.47L53.47 33.66Q53.64 33.52 53.94 33.43Q54.23 33.34 54.59 33.34L54.59 33.34L59.80 33.34Q60.64 33.34 61.03 33.72Q61.41 34.11 61.41 34.95L61.41 34.95L61.41 41.67Q61.41 43.38 61.13 44.23Q60.85 45.06 60.01 46.19L60.01 46.19L54.76 53.29L54.76 57.63Q54.76 58.09 54.64 58.40Q54.52 58.72 54.27 58.92L54.27 58.92L49.72 62.70Q49.58 62.84 49.28 62.95Q48.98 63.05 48.64 63.05ZM47.48 58.89L53.15 58.89Q53.82 58.89 54.11 58.59Q54.41 58.30 54.41 57.63L54.41 57.63L54.41 53.19L59.73 45.98Q60.50 44.89 60.78 44.09Q61.06 43.28 61.06 41.67L61.06 41.67L61.06 34.95Q61.06 34.28 60.76 33.99Q60.47 33.69 59.80 33.69L59.80 33.69L54.59 33.69Q53.92 33.69 53.62 33.99Q53.33 34.28 53.33 34.95L53.33 34.95L53.33 40.69Q53.33 41.04 53.29 41.42Q53.26 41.81 53.01 42.16L53.01 42.16L51.40 44.68Q51.23 44.99 51.03 45.13Q50.84 45.27 50.56 45.27L50.56 45.27L50.21 45.27Q49.93 45.27 49.74 45.13Q49.55 44.99 49.37 44.68L49.37 44.68L47.76 42.16Q47.52 41.81 47.48 41.42Q47.45 41.04 47.45 40.69L47.45 40.69L47.45 34.95Q47.45 34.28 47.15 33.99Q46.85 33.69 46.19 33.69L46.19 33.69L40.80 33.69Q40.13 33.69 39.83 33.99Q39.54 34.28 39.54 34.95L39.54 34.95L39.54 41.67Q39.54 43.28 39.80 44.09Q40.06 44.89 40.87 45.98L40.87 45.98L46.22 53.15L46.22 57.63Q46.22 58.30 46.52 58.59Q46.82 58.89 47.48 58.89L47.48 58.89ZM50.73 49.75L50.73 49.75L50.49 49.75L50.49 55.74L50.14 55.74L50.14 49.75L49.79 49.75Q49.02 49.75 48.41 49.41Q47.80 49.05 47.23 48.28L47.23 48.28L43.84 43.56Q43.46 43.03 43.39 42.33Q43.32 41.63 43.32 40.86L43.32 40.86L43.32 36.84L43.67 36.84L43.67 40.86Q43.67 41.60 43.73 42.25Q43.81 42.89 44.16 43.42L44.16 43.42L47.55 48.14Q48.01 48.84 48.60 49.13Q49.20 49.41 49.79 49.41L49.79 49.41L50.73 49.41Q51.40 49.41 51.94 49.11Q52.48 48.81 53.01 48.14L53.01 48.14L56.51 43.42Q56.86 42.97 56.93 42.28Q57 41.60 57 40.86L57 40.86L57 36.84L57.35 36.84L57.35 40.86Q57.35 41.63 57.30 42.32Q57.25 43 56.83 43.56L56.83 43.56L53.33 48.28Q52.77 49.05 52.15 49.41Q51.54 49.75 50.73 49.75ZM83.60 66.66L83.60 66.66L65.33 66.66Q64.49 66.66 64.11 66.29Q63.72 65.92 63.72 65.05L63.72 65.05L63.72 60.36Q63.72 59.91 63.84 59.59Q63.97 59.27 64.21 59.06L64.21 59.06L68.73 55.25Q68.90 55.11 69.20 55.02Q69.50 54.94 69.85 54.94L69.85 54.94L88.12 54.94Q88.96 54.94 89.34 55.30Q89.73 55.67 89.73 56.55L89.73 56.55L89.73 61.23Q89.73 61.69 89.60 62.01Q89.48 62.32 89.24 62.53L89.24 62.53L84.72 66.34Q84.51 66.48 84.23 66.57Q83.95 66.66 83.60 66.66ZM69.85 62.50L69.85 62.50L88.12 62.50Q88.78 62.50 89.08 62.20Q89.38 61.90 89.38 61.23L89.38 61.23L89.38 56.55Q89.38 55.88 89.08 55.58Q88.78 55.28 88.12 55.28L88.12 55.28L69.85 55.28Q69.18 55.28 68.88 55.58Q68.59 55.88 68.59 56.55L68.59 56.55L68.59 61.23Q68.59 61.90 68.88 62.20Q69.18 62.50 69.85 62.50ZM71.74 58.72L86.23 58.72L86.23 59.06L71.74 59.06L71.74 58.72Z" fill="#ffffff"></path></svg>