<svg xmlns="http://www.w3.org/2000/svg" width="256" height="256" viewBox="0 0 100 100"><path fill="#000000" d="M32.42 78.87L32.42 78.87L3.45 78.87Q1.82 78.87 1.07 78.12Q0.33 77.37 0.33 75.74L0.33 75.74L0.33 67.65Q0.33 66.76 0.56 66.15Q0.80 65.54 1.28 65.13L1.28 65.13L9.51 58.19L9.51 43.03L3.45 43.03Q1.82 43.03 1.07 42.28Q0.33 41.53 0.33 39.90L0.33 39.90L0.33 31.67Q0.33 30.79 0.56 30.18Q0.80 29.57 1.28 29.16L1.28 29.16L10.05 21.75Q10.39 21.47 10.97 21.30Q11.55 21.13 12.23 21.13L12.23 21.13L41.19 21.13Q42.83 21.13 43.57 21.88Q44.32 22.63 44.32 24.26L44.32 24.26L44.32 32.49Q44.32 33.37 44.08 33.99Q43.85 34.60 43.37 35.01L43.37 35.01L35.28 41.81L35.28 57.11L41.19 57.11Q42.83 57.11 43.57 57.85Q44.32 58.60 44.32 60.23L44.32 60.23L44.32 68.33Q44.32 69.21 44.08 69.82Q43.85 70.43 43.37 70.84L43.37 70.84L34.53 78.19Q34.26 78.46 33.68 78.66Q33.10 78.87 32.42 78.87ZM12.23 70.77L12.23 70.77L41.19 70.77Q42.49 70.77 43.06 70.20Q43.64 69.62 43.64 68.33L43.64 68.33L43.64 60.23Q43.64 58.94 43.06 58.36Q42.49 57.79 41.19 57.79L41.19 57.79L34.60 57.79L34.60 34.94L41.19 34.94Q42.49 34.94 43.06 34.36Q43.64 33.78 43.64 32.49L43.64 32.49L43.64 24.26Q43.64 22.97 43.06 22.39Q42.49 21.81 41.19 21.81L41.19 21.81L12.23 21.81Q10.93 21.81 10.36 22.39Q9.78 22.97 9.78 24.26L9.78 24.26L9.78 32.49Q9.78 33.78 10.36 34.36Q10.93 34.94 12.23 34.94L12.23 34.94L18.96 34.94L18.96 57.79L12.23 57.79Q10.93 57.79 10.36 58.36Q9.78 58.94 9.78 60.23L9.78 60.23L9.78 68.33Q9.78 69.62 10.36 70.20Q10.93 70.77 12.23 70.77ZM37.52 63.97L37.52 64.65L15.90 64.65L15.90 63.97L26.44 63.97L26.44 28.61L15.90 28.61L15.90 27.93L37.52 27.93L37.52 28.61L27.12 28.61L27.12 63.97L37.52 63.97ZM74.85 78.87L74.85 78.87L63.84 78.87Q62.14 78.87 61.42 78.12Q60.71 77.37 60.71 75.74L60.71 75.74L60.71 67.24L50.44 53.50Q48.81 51.33 48.27 49.69Q47.72 48.06 47.72 44.73L47.72 44.73L47.72 31.67Q47.72 30.79 47.96 30.18Q48.20 29.57 48.67 29.16L48.67 29.16L57.45 21.75Q57.79 21.47 58.36 21.30Q58.94 21.13 59.62 21.13L59.62 21.13L70.09 21.13Q71.73 21.13 72.47 21.88Q73.22 22.63 73.22 24.26L73.22 24.26L73.22 35.41Q73.22 36.03 73.29 36.64Q73.36 37.25 73.70 37.93L73.70 37.93L74.51 39.09L74.51 31.67Q74.51 30.79 74.75 30.18Q74.99 29.57 75.47 29.16L75.47 29.16L84.24 21.75Q84.58 21.47 85.16 21.30Q85.73 21.13 86.41 21.13L86.41 21.13L96.55 21.13Q98.18 21.13 98.93 21.88Q99.67 22.63 99.67 24.26L99.67 24.26L99.67 37.32Q99.67 40.65 99.13 42.28Q98.59 43.91 96.95 46.09L96.95 46.09L86.75 59.89L86.75 68.33Q86.75 69.21 86.52 69.82Q86.28 70.43 85.80 70.84L85.80 70.84L76.96 78.19Q76.69 78.46 76.11 78.66Q75.53 78.87 74.85 78.87ZM72.61 70.77L83.63 70.77Q84.92 70.77 85.50 70.20Q86.07 69.62 86.07 68.33L86.07 68.33L86.07 59.69L96.41 45.68Q97.91 43.57 98.45 42.01Q98.99 40.45 98.99 37.32L98.99 37.32L98.99 24.26Q98.99 22.97 98.42 22.39Q97.84 21.81 96.55 21.81L96.55 21.81L86.41 21.81Q85.12 21.81 84.54 22.39Q83.97 22.97 83.97 24.26L83.97 24.26L83.97 35.41Q83.97 36.09 83.90 36.84Q83.83 37.59 83.35 38.27L83.35 38.27L80.23 43.17Q79.89 43.78 79.51 44.05Q79.14 44.32 78.59 44.32L78.59 44.32L77.91 44.32Q77.37 44.32 77.00 44.05Q76.62 43.78 76.28 43.17L76.28 43.17L73.15 38.27Q72.68 37.59 72.61 36.84Q72.54 36.09 72.54 35.41L72.54 35.41L72.54 24.26Q72.54 22.97 71.96 22.39Q71.39 21.81 70.09 21.81L70.09 21.81L59.62 21.81Q58.33 21.81 57.75 22.39Q57.17 22.97 57.17 24.26L57.17 24.26L57.17 37.32Q57.17 40.45 57.68 42.01Q58.19 43.57 59.76 45.68L59.76 45.68L70.16 59.62L70.16 68.33Q70.16 69.62 70.74 70.20Q71.32 70.77 72.61 70.77L72.61 70.77ZM78.93 53.03L78.93 53.03L78.46 53.03L78.46 64.65L77.78 64.65L77.78 53.03L77.10 53.03Q75.60 53.03 74.41 52.35Q73.22 51.67 72.13 50.17L72.13 50.17L65.54 40.99Q64.79 39.97 64.65 38.61Q64.52 37.25 64.52 35.75L64.52 35.75L64.52 27.93L65.20 27.93L65.20 35.75Q65.20 37.18 65.33 38.44Q65.47 39.70 66.15 40.72L66.15 40.72L72.75 49.90Q73.63 51.26 74.79 51.80Q75.94 52.35 77.10 52.35L77.10 52.35L78.93 52.35Q80.23 52.35 81.28 51.77Q82.33 51.19 83.35 49.90L83.35 49.90L90.15 40.72Q90.83 39.83 90.97 38.51Q91.11 37.18 91.11 35.75L91.11 35.75L91.11 27.93L91.79 27.93L91.79 35.75Q91.79 37.25 91.68 38.58Q91.58 39.90 90.77 40.99L90.77 40.99L83.97 50.17Q82.88 51.67 81.69 52.35Q80.50 53.03 78.93 53.03Z"></path></svg>